IKResults
version=1
nRows=10
nColumns=63
inDegrees=yes

Units are S.I. units (second, meters, Newtons, ...)
If the header above contains a line with 'inDegrees', this indicates whether rotational values are in degrees (yes) or radians (no).

endheader
time	pelvis_tilt	pelvis_list	pelvis_rotation	pelvis_tx	pelvis_ty	pelvis_tz	hip_flexion_r	hip_adduction_r	hip_rotation_r	knee_angle_r	knee_angle_r_beta	ankle_angle_r	subtalar_angle_r	mtp_angle_r	hip_flexion_l	hip_adduction_l	hip_rotation_l	knee_angle_l	knee_angle_l_beta	ankle_angle_l	subtalar_angle_l	mtp_angle_l	L5_S1_Flex_Ext	L5_S1_Lat_Bending	L5_S1_axial_rotation	L4_L5_Flex_Ext	L4_L5_Lat_Bending	L4_L5_axial_rotation	L3_L4_Flex_Ext	L3_L4_Lat_Bending	L3_L4_axial_rotation	L2_L3_Flex_Ext	L2_L3_Lat_Bending	L2_L3_axial_rotation	L1_L2_Flex_Ext	L1_L2_Lat_Bending	L1_L2_axial_rotation	L1_T12_Flex_Ext	L1_T12_Lat_Bending	L1_T12_axial_rotation	Abs_r3	Abs_r2	Abs_r1	Abs_t1	Abs_t2	neck_flexion	neck_bending	neck_rotation	arm_flex_r	arm_add_r	arm_rot_r	elbow_flex_r	pro_sup_r	wrist_flex_r	wrist_dev_r	arm_flex_l	arm_add_l	arm_rot_l	elbow_flex_l	pro_sup_l	wrist_flex_l	wrist_dev_l
      4.03333333	      1.48965240	     32.35545358	    -57.55290347	     -0.59349001	      0.88624193	     -0.85419731	     28.56839771	    -29.09228909	     15.76366785	      0.12844692	      0.00224182	     17.80241466	    -17.94100148	      0.00000000	     40.40733544	     15.44353383	      2.86547505	     11.93311875	      0.20827221	      1.02342331	    -12.97792089	      0.00000000	     -8.40234041	     -0.15518934	     -4.10753382	    -15.60398637	     -0.20640183	     -4.36425469	    -13.80420506	     -0.37732737	     -4.36425469	     -9.60303485	     -0.37732737	     -3.59409210	     -7.80241330	     -0.31646211	     -3.33737123	     -4.80109731	     -0.24038829	     -3.08065037	    -60.01707730	     -1.75553288	    -22.84487087	      0.00000000	      0.00000000	     21.88066843	     15.94695779	    -28.99582099	      6.86813521	    -10.22930935	      7.07769027	     75.00937709	     89.99559364	      0.00000000	      0.00000000	     57.29548821	     -8.55268880	      0.15039043	     23.18411033	     89.99559364	      0.00000000	      0.00000000
      4.06666667	      1.51800392	     32.34548532	    -57.62703823	     -0.59327480	      0.88615012	     -0.85427368	     28.58551617	    -29.08113345	     15.69461053	      0.13048847	      0.00227745	     17.79777198	    -17.88833865	      0.00000000	     40.40061954	     15.43955948	      2.84088551	     11.93508224	      0.20830648	      1.03681731	    -12.97556935	      0.00000000	     -8.39476835	     -0.15059273	     -4.10577584	    -15.58992431	     -0.20028833	     -4.36238683	    -13.79176493	     -0.36615116	     -4.36238683	     -9.59438075	     -0.36615116	     -3.59255386	     -7.79538189	     -0.30708869	     -3.33594287	     -4.79677064	     -0.23326813	     -3.07933188	    -59.96299087	     -1.70353504	    -22.83509348	      0.00000000	      0.00000000	     21.88387456	     15.95229532	    -29.03118242	      6.87032567	    -10.22638950	      7.07782838	     75.00939670	     89.99559364	      0.00000000	      0.00000000	     57.24851677	     -8.53647148	      0.17967326	     23.17098927	     89.99559364	      0.00000000	      0.00000000
      4.10000000	      1.49546792	     32.54207947	    -57.79328326	     -0.59341866	      0.88578015	     -0.85452040	     28.92525006	    -29.04301504	     15.46955211	      0.12941393	      0.00225870	     17.40237121	    -17.91306790	      0.00000000	     40.66652621	     15.41850527	      2.64898141	     11.98069158	      0.20910251	      1.03657357	    -13.20516506	      0.00000000	     -8.36184798	     -0.15503316	     -4.03489202	    -15.52878788	     -0.20619410	     -4.28707277	    -13.73768005	     -0.37694762	     -4.28707277	     -9.55675606	     -0.37694762	     -3.53053052	     -7.76481203	     -0.31614362	     -3.27834977	     -4.77795994	     -0.24014636	     -3.02616902	    -59.72784394	     -1.75376609	    -22.44085896	      0.00000000	      0.00000000	     22.16083812	     15.93458652	    -30.14615517	      7.38819903	     -9.55573156	      7.10678467	     75.01159302	     89.99559364	      0.00000000	      0.00000000	     57.67556689	     -9.17782102	      6.44844249	     22.83171705	     89.99559364	      0.00000000	      0.00000000
      4.13333333	      1.52296628	     32.53789505	    -57.85709163	     -0.59318448	      0.88568285	     -0.85453664	     28.91363939	    -29.06270156	     15.37173375	      0.13089288	      0.00228451	     17.33586207	    -17.86179124	      0.00000000	     40.66720122	     15.41312610	      2.62211743	     11.98568352	      0.20918964	      1.07022479	    -13.20483176	      0.00000000	     -8.35631633	     -0.15447095	     -4.03249245	    -15.51851505	     -0.20544636	     -4.28452323	    -13.72859209	     -0.37558067	     -4.28452323	     -9.55043393	     -0.37558067	     -3.52843090	     -7.75967534	     -0.31499716	     -3.27640012	     -4.77479915	     -0.23927550	     -3.02436934	    -59.68833189	     -1.74740628	    -22.42751328	      0.00000000	      0.00000000	     22.14353156	     15.93625935	    -30.17835397	      7.39236716	     -9.55079597	      7.10696736	     75.01159115	     89.99559364	      0.00000000	      0.00000000	     57.62254429	     -9.12332299	      6.48065306	     22.83624189	     89.99559364	      0.00000000	      0.00000000
      4.16666667	      1.57886182	     32.53304025	    -57.90681971	     -0.59264792	      0.88578467	     -0.85471569	     28.89068736	    -29.13035277	     15.10055800	      0.13148390	      0.00229483	     17.02289598	    -17.85284837	      0.00000000	     40.66349856	     15.46711401	      2.53550485	     12.01929774	      0.20977632	      1.14151383	    -13.24035331	      0.00000000	     -8.35943870	     -0.15152479	     -4.03454364	    -15.52431361	     -0.20152798	     -4.28670262	    -13.73372184	     -0.36841738	     -4.28670262	     -9.55400249	     -0.36841738	     -3.53022569	     -7.76257477	     -0.30898936	     -3.27806671	     -4.77658327	     -0.23471190	     -3.02590773	    -59.71063467	     -1.71407877	    -22.43892138	      0.00000000	      0.00000000	     22.06274351	     15.92417337	    -30.39885870	      7.40644660	     -9.53662292	      7.10735869	     75.01154704	     89.99559364	      0.00000000	      0.00000000	     57.62138588	     -9.01341388	      6.60770474	     22.88441295	     89.99559364	      0.00000000	      0.00000000
      4.20000000	      1.57256061	     32.52132853	    -57.93603142	     -0.59258624	      0.88583684	     -0.85480309	     28.89665527	    -29.13021133	     15.05299338	      0.13603628	      0.00237428	     17.02291002	    -17.77222839	      0.00000000	     40.67836156	     15.43806537	      2.53128814	     12.03193523	      0.20999689	      1.13393701	    -13.20716241	      0.00000000	     -8.36242642	     -0.15050313	     -4.03640372	    -15.52986210	     -0.20016916	     -4.28867896	    -13.73863036	     -0.36593330	     -4.28867896	     -9.55741715	     -0.36593330	     -3.53185326	     -7.76534917	     -0.30690598	     -3.27957802	     -4.77829045	     -0.23312934	     -3.02730279	    -59.73197564	     -1.70252148	    -22.44926658	      0.00000000	      0.00000000	     22.01123697	     15.89891648	    -30.43545866	      7.40904334	     -9.53454961	      7.10738615	     75.01153441	     89.99559364	      0.00000000	      0.00000000	     57.63621676	     -8.99805913	      6.63312106	     22.90127232	     89.99559364	      0.00000000	      0.00000000
      4.23333333	      1.54113176	     32.08801026	    -57.61410276	     -0.59181397	      0.88687717	     -0.85469790	     28.22161099	    -29.07300240	     14.54277723	      0.13510661	      0.00235806	     16.78267355	    -17.91729728	      0.00000000	     40.25687359	     15.42659107	      2.70167752	     12.10761365	      0.21131772	      1.22957299	    -12.85896690	      0.00000000	     -8.44930861	     -0.10182584	     -4.02813274	    -15.69121102	     -0.13542837	     -4.27989103	    -13.88136912	     -0.24757934	     -4.27989103	     -9.65671481	     -0.24757934	     -3.52461614	     -7.84602798	     -0.20764325	     -3.27285785	     -4.82793494	     -0.15772822	     -3.02109955	    -60.35256648	     -1.15187425	    -22.40326584	      0.00000000	      0.00000000	     21.89207048	     15.00449100	    -31.77134251	      7.51656092	     -9.47046926	      7.10681574	     75.01102728	     89.99559364	      0.00000000	      0.00000000	     57.97789060	     -8.84941425	      7.60734158	     22.83043362	     89.99559364	      0.00000000	      0.00000000
      4.26666667	      1.53131901	     32.06916368	    -57.62710884	     -0.59189414	      0.88705574	     -0.85484511	     28.24688694	    -29.05719572	     14.51326258	      0.13988239	      0.00244141	     16.80097574	    -17.79199497	      0.00000000	     40.26568471	     15.39562391	      2.69356763	     12.12525626	      0.21162564	      1.20880426	    -12.81214144	      0.00000000	     -8.45931398	     -0.09920175	     -4.02790116	    -15.70979199	     -0.13193833	     -4.27964498	    -13.89780694	     -0.24119913	     -4.27964498	     -9.66814995	     -0.24119913	     -3.52441352	     -7.85531896	     -0.20229221	     -3.27266969	     -4.83365201	     -0.15366351	     -3.02092587	    -60.42403383	     -1.12219002	    -22.40197789	      0.00000000	      0.00000000	     21.82141070	     14.96677615	    -31.75973557	      7.52012905	     -9.46895712	      7.10675050	     75.01101091	     89.99559364	      0.00000000	      0.00000000	     58.03441581	     -8.85491052	      7.63061545	     22.85354603	     89.99559364	      0.00000000	      0.00000000
      4.30000000	      1.48423341	     31.85420590	    -57.59016681	     -0.59175289	      0.88783908	     -0.85501473	     28.05593146	    -28.94262760	     14.43293071	      0.13915818	      0.00242877	     16.51233773	    -17.69899836	      0.00000000	     40.14121128	     15.28892455	      2.59885298	     12.23349217	      0.21351472	      1.11520125	    -12.68985685	      0.00000000	     -8.50517130	     -0.07818976	     -4.01283866	    -15.79495363	     -0.10399238	     -4.26364107	    -13.97314594	     -0.19011058	     -4.26364107	     -9.72056028	     -0.19011058	     -3.51123383	     -7.89790207	     -0.15944456	     -3.26043141	     -4.85985488	     -0.12111594	     -3.00962899	    -60.75158811	     -0.88449821	    -22.31820476	      0.00000000	      0.00000000	     21.53505636	     14.47517235	    -31.90673867	      7.54323007	     -9.46210893	      7.10611882	     75.01093230	     89.99559364	      0.00000000	      0.00000000	     58.22089371	     -8.80517459	      7.80706026	     22.86480252	     89.99559364	      0.00000000	      0.00000000
      4.33333333	      1.28107264	     30.89639075	    -57.11995706	     -0.59174585	      0.88993208	     -0.85433285	     26.88110868	    -28.35082852	     13.54986669	      0.13947356	      0.00243427	     16.44683878	    -17.86845408	      0.00000000	     39.23450532	     14.85795147	      2.61339718	     12.27286078	      0.21420183	      1.56962816	    -11.33199956	      0.00000000	     -8.67883064	      0.00968085	     -3.95904101	    -16.11745637	      0.01287554	     -4.20648107	    -14.25845085	      0.02353803	     -4.20648107	     -9.91903553	      0.02353803	     -3.46416088	     -8.05916213	      0.01974120	     -3.21672082	     -4.95908383	      0.01499564	     -2.96928076	    -61.99201935	      0.10951177	    -22.01899839	      0.00000000	      0.00000000	     21.93180481	     13.46259332	    -32.41104527	      7.94153913	     -9.38380934	      7.09252356	     75.01009583	     89.99559364	      0.00000000	      0.00000000	     58.97913712	     -8.86924868	     10.01355699	     22.52169134	     89.99559364	      0.00000000	      0.00000000
